<?xml version="1.0" encoding="UTF-8" standalone="no"?>
<!-- Created with Inkscape (http://www.inkscape.org/) -->

<svg
   xmlns:dc="http://purl.org/dc/elements/1.1/"
   xmlns:cc="http://creativecommons.org/ns#"
   xmlns:rdf="http://www.w3.org/1999/02/22-rdf-syntax-ns#"
   xmlns:svg="http://www.w3.org/2000/svg"
   xmlns="http://www.w3.org/2000/svg"
   xmlns:sodipodi="http://sodipodi.sourceforge.net/DTD/sodipodi-0.dtd"
   xmlns:inkscape="http://www.inkscape.org/namespaces/inkscape"
   width="292.90549"
   height="42.912811"
   viewBox="0 0 77.497908 11.354014"
   version="1.1"
   id="svg8"
   inkscape:version="0.92.0 r15299"
   sodipodi:docname="consumer cellular.svg">
  <defs
     id="defs2">
    <style
       id="style10">.\39 b9e1fe8-9dd2-43ce-b2f0-c98fa9cd346c{fill:#fff;}</style>
  </defs>
  <sodipodi:namedview
     id="base"
     pagecolor="#ffffff"
     bordercolor="#666666"
     borderopacity="1.0"
     inkscape:pageopacity="0.0"
     inkscape:pageshadow="2"
     inkscape:zoom="2.7569092"
     inkscape:cx="145.45274"
     inkscape:cy="20.456405"
     inkscape:document-units="mm"
     inkscape:current-layer="layer1"
     showgrid="false"
     fit-margin-top="0"
     fit-margin-left="0"
     fit-margin-right="0"
     fit-margin-bottom="0"
     units="px"
     inkscape:window-width="1280"
     inkscape:window-height="744"
     inkscape:window-x="-4"
     inkscape:window-y="-4"
     inkscape:window-maximized="1" />
  <metadata
     id="metadata5">
    <rdf:RDF>
      <cc:Work
         rdf:about="">
        <dc:format>image/svg+xml</dc:format>
        <dc:type
           rdf:resource="http://purl.org/dc/dcmitype/StillImage" />
        <dc:title></dc:title>
      </cc:Work>
    </rdf:RDF>
  </metadata>
  <g
     inkscape:label="Layer 1"
     inkscape:groupmode="layer"
     id="layer1"
     transform="translate(234.27604,-259.30842)">
    <g
       data-name="Layer 2"
       id="5361d63f-73f5-4f94-bdc6-fc087c279c2d"
       transform="matrix(0.26458333,0,0,0.26458333,-234.01146,259.573)"
       style="fill:#f26631;fill-opacity:1">
      <g
         data-name="Design"
         id="9ddb1c94-1e34-4fd9-8e0b-bae04aae53f5"
         style="fill:#f26631;fill-opacity:1">
        <path
           id="path16"
           d="m 123.18507,20.23114 c 0,-1.75279 -0.0591,-4.46433 -2.93548,-5.52619 a 5.02418,5.02418 0 0 0 -2.033,-0.39287 6.88375,6.88375 0 0 0 -3.81869,1.125 7.70858,7.70858 0 0 0 -2.54134,2.76795 c -0.28568,-1.12909 -0.90516,-3.83529 -4.566,-3.83529 -3.54665,0 -5.2391,2.31051 -6.47805,4.04825 v -3.60178 h -7.27084 v 1.18269 h 2.6526 V 39.16566 H 91.28616 V 14.81621 h -7.21583 v 1.18269 h 2.64839 v 14.3163 c -0.04937,2.14 -0.21831,5.13473 -1.85575,7.21442 a 2.92816,2.92816 0 0 1 -2.42726,1.34895 c -2.08377,0 -2.08377,-1.96857 -2.08377,-3.37646 v -20.6859 h -7.268 V 15.9989 H 75.735 v 18.21193 c 0,2.4163 0.05233,6.52757 4.79137,6.52757 a 6.66549,6.66549 0 0 0 6.19237,-3.88875 v 3.49589 h 16.51415 v -1.17988 h -2.42037 V 25.18454 c 0.0467,-2.2555 0.11534,-4.90122 1.57963,-6.9795 a 3.78058,3.78058 0 0 1 2.9314,-1.86687 c 2.0275,0 2.0275,2.30644 2.0825,4.06063 v 18.76686 h -2.36551 v 1.17987 h 9.40677 v -1.17987 h -2.47664 V 23.65977 c 0,-1.80356 0.0494,-4.10859 1.57837,-5.96026 a 3.48425,3.48425 0 0 1 2.75684,-1.52478 1.91753,1.91753 0 0 1 1.80779,1.06326 6.77974,6.77974 0 0 1 0.44773,3.10441 v 18.82326 h -2.36819 v 1.17987 h 9.639 v -1.17987 h -2.64712 z"
           class="9b9e1fe8-9dd2-43ce-b2f0-c98fa9cd346c"
           inkscape:connector-curvature="0"
           style="fill:#f26631;fill-opacity:1" />
        <path
           id="path18"
           d="m 139.73622,31.26847 c -0.44632,2.20474 -1.62774,7.94516 -5.51381,7.94516 a 3.35586,3.35586 0 0 1 -3.04941,-2.136 c -0.89841,-1.915 -0.84482,-5.40944 -0.79122,-10.65135 h 10.99471 c 0.0632,-3.10033 0.0632,-7.38194 -2.76935,-10.20208 a 5.90971,5.90971 0 0 0 -4.27753,-1.74463 c -5.18283,0 -8.96031,5.57978 -8.96031,13.466 0,7.10456 3.32427,12.68842 8.51245,12.68842 5.12784,0 6.41911,-5.75012 7.20766,-9.07988 z m -8.04953,-14.31208 a 2.93887,2.93887 0 0 1 2.47256,-1.35036 c 2.489,0 2.59761,2.64712 2.64431,3.71853 0.12772,2.03441 0.0715,3.94643 0.0715,5.86 h -6.43557 c 0.11533,-4.90123 0.16611,-6.81607 1.24724,-8.22817 z"
           class="9b9e1fe8-9dd2-43ce-b2f0-c98fa9cd346c"
           inkscape:connector-curvature="0"
           style="fill:#f26631;fill-opacity:1" />
        <path
           id="path20"
           d="m 68.56867,25.01562 c -1.00686,-0.5618 -1.96294,-1.18143 -2.97936,-1.74463 -1.63055,-1.01925 -3.21174,-1.9711 -3.21174,-4.0055 a 3.59187,3.59187 0 0 1 3.71854,-3.4327 3.93418,3.93418 0 0 1 3.32427,1.91483 10.65534,10.65534 0 0 1 1.46289,5.35585 h 1.41759 v -8.28726 h -1.0755 l -0.91219,1.74871 a 4.876,4.876 0 0 0 -4.16894,-2.14425 c -4.05233,0 -6.69664,3.55775 -6.69664,7.27617 a 6.71441,6.71441 0 0 0 3.21441,5.85857 c 0.84749,0.621 4.78448,2.93013 5.57289,3.43285 1.46851,1.02192 2.53571,2.14145 2.53571,4.17444 0,2.13342 -1.35022,4.27486 -3.83248,4.27486 A 5.63642,5.63642 0 0 1 62.20048,36.454 12.12247,12.12247 0 0 1 60.58371,30.42649 h -1.36414 v 9.91907 H 60.401 l 1.35711,-2.08517 c 1.11953,1.24584 2.35862,2.599 5.06876,2.599 4.33942,0 6.64994,-4.40539 6.64994,-8.45759 -2e-5,-4.4507 -2.82156,-6.1458 -4.90814,-7.38618 z"
           class="9b9e1fe8-9dd2-43ce-b2f0-c98fa9cd346c"
           inkscape:connector-curvature="0"
           style="fill:#f26631;fill-opacity:1" />
        <path
           id="path22"
           d="m 11.43709,39.56261 c -4.27894,0 -5.01516,-5.30648 -5.2391,-12.34647 -0.05767,-1.967 -0.11126,-4.00549 -0.11126,-6.02751 0,-4.283 0.16894,-9.02361 0.39146,-11.3849 0.2802,-2.98626 0.90389,-5.702 2.47945,-7.268 a 4.38492,4.38492 0 0 1 2.9864,-1.239 4.43979,4.43979 0 0 1 3.60306,2.0811 c 1.80765,2.36819 2.37367,5.97392 2.8297,8.9575 h 1.17312 L 19.44132,0.49865 H 18.37679 L 17.01828,2.9245 A 5.98537,5.98537 0 0 0 11.944,0 C 5.18832,0 0,9.35178 0,20.73118 c 0,3.83249 0.6154,9.12782 2.36551,12.96863 1.35443,2.92732 4.33928,7.213 8.80094,7.213 a 6.56,6.56 0 0 0 5.57022,-3.16068 l 1.4657,2.59339 h 1.1772 L 19.72433,27.0486 h -1.23487 c -1.01797,5.01517 -2.43556,12.51401 -7.05237,12.51401 z"
           class="9b9e1fe8-9dd2-43ce-b2f0-c98fa9cd346c"
           inkscape:connector-curvature="0"
           style="fill:#f26631;fill-opacity:1" />
        <path
           id="path24"
           d="m 56.00671,20.56634 c 0,-1.97532 -0.06189,-4.51244 -2.53853,-5.68964 a 5.657,5.657 0 0 0 -2.25833,-0.456 c -3.43,0 -5.0056,2.58931 -5.85731,3.9519 v -3.55639 h -7.32427 v 1.18958 h 2.70606 v 23.15987 h -2.70606 v 1.17987 H 47.7798 V 39.16566 H 45.35254 V 25.01829 c 0.06189,-2.19911 0.11267,-5.01109 1.75012,-7.15534 a 3.066,3.066 0 0 1 2.423,-1.52478 c 1.805,0 1.85449,2.0344 1.85449,4.00423 V 39.16566 H 49.0189 v 1.17987 h 9.63887 v -1.17987 h -2.65106 z"
           class="9b9e1fe8-9dd2-43ce-b2f0-c98fa9cd346c"
           inkscape:connector-curvature="0"
           style="fill:#f26631;fill-opacity:1" />
        <path
           id="path26"
           d="m 153.37115,14.36975 c -2.93688,0 -4.34491,2.76246 -5.01516,4.1086 v -3.66214 h -7.27771 v 1.18269 h 2.6512 v 23.16676 h -2.6512 v 1.17987 h 10.2613 V 39.16566 H 148.356 V 24.95795 c 0,-2.42037 0,-5.18143 1.967,-7.6568 0.39976,-0.511 1.01656,-1.1855 1.57556,-1.1855 a 0.40259,0.40259 0 0 1 0.39976,0.44927 10.85307,10.85307 0 0 1 -0.45462,1.4135 1.58691,1.58691 0 0 0 -0.0536,0.49992 2.28558,2.28558 0 0 0 2.42726,2.36411 2.6861,2.6861 0 0 0 2.52742,-2.9795 3.308,3.308 0 0 0 -3.37364,-3.4932 z"
           class="9b9e1fe8-9dd2-43ce-b2f0-c98fa9cd346c"
           inkscape:connector-curvature="0"
           style="fill:#f26631;fill-opacity:1" />
        <path
           id="path28"
           d="m 30.14627,14.31616 c -4.49457,0 -8.72822,5.29 -8.72822,13.45629 0,2.76654 0.62088,8.117 4.11,11.16646 a 5.413,5.413 0 0 0 3.94374,1.57009 c 1.581,0 3.44242,-0.33238 5.52619,-2.85713 a 12.458,12.458 0 0 0 2.53023,-5.18973 22.43853,22.43853 0 0 0 0.67729,-5.46978 c 0,-8.40136 -4.11408,-12.6762 -8.05923,-12.6762 z m 1.64012,23.88512 a 2.39825,2.39825 0 0 1 -2.03032,1.01924 c -3.03985,0 -3.32694,-3.7789 -3.32694,-9.69246 a 83.42366,83.42366 0 0 1 0.3366,-10.26257 c 0.34195,-1.91623 1.239,-3.65945 3.21019,-3.65945 2.08658,0 2.60576,2.0275 2.70606,2.599 0.39835,1.51648 0.39835,3.31456 0.39835,7.71166 1e-5,8.12239 1e-5,10.59917 -1.29394,12.28458 z"
           class="9b9e1fe8-9dd2-43ce-b2f0-c98fa9cd346c"
           inkscape:connector-curvature="0"
           style="fill:#f26631;fill-opacity:1" />
        <path
           id="path30"
           d="m 268.09582,35.38945 c -0.2719,1.62915 -0.55351,3.20878 -1.45881,3.20878 -0.72933,0 -0.78574,-0.94637 -0.78574,-1.353 -0.0603,-0.73482 -0.0603,-1.40113 -0.0603,-2.14692 V 20.28333 c 0,-1.96842 -0.0577,-4.22943 -2.81605,-5.35852 a 11.19772,11.19772 0 0 0 -3.60447,-0.55505 c -5.02206,0 -7.66636,2.86824 -7.66636,5.35177 0,1.86 1.12923,2.92732 2.529,2.92732 a 2.61509,2.61509 0 0 0 2.60169,-2.6993 2.729,2.729 0 0 0 -0.6154,-1.74449 c -0.2885,-0.34209 -0.68137,-0.68137 -0.68137,-1.07283 0,-0.50414 1.17171,-1.52618 3.09893,-1.52618 2.64853,0 2.64853,2.31459 2.64853,4.3971 V 24.907 c -3.21174,0.724 -6.4796,1.46429 -8.79419,4.05374 A 7.35749,7.35749 0 0 0 250.52,34.14346 c 0,3.224 1.91624,6.37523 5.51663,6.37523 2.54261,0 3.89564,-1.353 5.2488,-3.72671 a 4.21179,4.21179 0 0 0 0.94356,2.54388 4.033,4.033 0 0 0 2.94518,1.12234 c 3.32286,0 3.71432,-2.58382 4.11408,-4.90812 z m -6.81043,-6.31193 c -0.11548,3.71292 -0.28583,5.69372 -1.35317,7.6018 -0.28836,0.45743 -1.12769,1.96983 -2.48212,1.96983 -1.41351,0 -1.79949,-1.85717 -1.79949,-4.33394 0,-6.02626 1.46289,-7.10723 5.63478,-8.28317 z"
           class="9b9e1fe8-9dd2-43ce-b2f0-c98fa9cd346c"
           inkscape:connector-curvature="0"
           style="fill:#f26631;fill-opacity:1" />
        <path
           id="path32"
           d="m 289.74878,16.32721 c 0,-0.64423 -0.38457,-0.75 -0.96016,-0.75 h -1.19788 v 2.47129 h 0.54675 v -1.044 h 0.39554 l 0.54816,1.044 h 0.588 l -0.588,-1.044 c 0.43001,-0.03714 0.66759,-0.21437 0.66759,-0.67729 z m -0.94919,0.31044 h -0.6621 v -0.629 h 0.53016 c 0.2432,0 0.56194,0 0.56194,0.24714 0,0.32011 -0.14839,0.38186 -0.43,0.38186 z"
           class="9b9e1fe8-9dd2-43ce-b2f0-c98fa9cd346c"
           inkscape:connector-curvature="0"
           style="fill:#f26631;fill-opacity:1" />
        <path
           id="path34"
           d="m 280.88327,14.36975 c -2.92872,0 -4.33661,2.76246 -5.02206,4.1086 v -3.66214 h -7.26252 v 1.18269 h 2.64431 v 23.16676 h -2.64431 v 1.17987 H 278.853 v -1.17987 h -2.99174 V 24.95795 c 0,-2.42037 0,-5.18143 1.97391,-7.6568 0.39554,-0.511 1.01783,-1.1855 1.57963,-1.1855 a 0.40259,0.40259 0 0 1 0.39976,0.44927 9.909,9.909 0 0 1 -0.46151,1.4135 1.97846,1.97846 0 0 0 -0.0426,0.49992 2.28115,2.28115 0 0 0 2.41629,2.36411 2.687,2.687 0 0 0 2.53571,-2.9795 3.31154,3.31154 0 0 0 -3.37916,-3.4932 z"
           class="9b9e1fe8-9dd2-43ce-b2f0-c98fa9cd346c"
           inkscape:connector-curvature="0"
           style="fill:#f26631;fill-opacity:1" />
        <path
           id="path36"
           d="m 288.53993,14.46047 a 2.37779,2.37779 0 1 0 2.36551,2.38184 2.36786,2.36786 0 0 0 -2.36551,-2.38184 z m 0,4.18963 a 1.81259,1.81259 0 1 1 1.80371,-1.80779 1.75663,1.75663 0 0 1 -1.80371,1.80779 z"
           class="9b9e1fe8-9dd2-43ce-b2f0-c98fa9cd346c"
           inkscape:connector-curvature="0"
           style="fill:#f26631;fill-opacity:1" />
        <polygon
           id="polygon38"
           points="217.408,39.166 217.408,0.499 210.133,0.499 210.133,1.688 212.782,1.688 212.782,39.166 210.133,39.166 210.133,40.346 220.054,40.346 220.054,39.166 "
           class="9b9e1fe8-9dd2-43ce-b2f0-c98fa9cd346c"
           style="fill:#f26631;fill-opacity:1" />
        <polygon
           id="polygon40"
           points="207.396,39.166 207.396,0.499 200.119,0.499 200.119,1.688 202.764,1.688 202.764,39.166 200.119,39.166 200.119,40.346 210.037,40.346 210.037,39.166 "
           class="9b9e1fe8-9dd2-43ce-b2f0-c98fa9cd346c"
           style="fill:#f26631;fill-opacity:1" />
        <path
           id="path42"
           d="m 198.89122,31.26847 c -0.45054,2.20474 -1.63323,7.94516 -5.52338,7.94516 a 3.34975,3.34975 0 0 1 -3.04266,-2.136 c -0.90108,-1.915 -0.83652,-5.40944 -0.78574,-10.65135 h 10.98641 c 0.0536,-3.10033 0.0536,-7.38194 -2.75543,-10.20208 a 5.967,5.967 0 0 0 -4.29821,-1.74463 c -5.17594,0 -8.94794,5.57978 -8.94794,13.466 0,7.10456 3.31864,12.68842 8.507,12.68842 5.12924,0 6.42319,-5.75012 7.21582,-9.07988 z M 190.832,16.95639 a 2.9646,2.9646 0 0 1 2.48916,-1.35036 c 2.46974,0 2.57144,2.64712 2.64009,3.71853 0.11267,2.03441 0.0591,3.94643 0.0591,5.86 h -6.43149 c 0.11687,-4.90123 0.17454,-6.81607 1.24316,-8.22817 z"
           class="9b9e1fe8-9dd2-43ce-b2f0-c98fa9cd346c"
           inkscape:connector-curvature="0"
           style="fill:#f26631;fill-opacity:1" />
        <path
           id="path44"
           d="M 247.4939,39.16566 V 0.49865 h -7.27631 v 1.18958 h 2.65668 v 37.47743 h -4.90953 V 14.81621 h -7.21568 v 1.18269 h 2.64839 v 14.3163 c -0.0509,2.14 -0.217,5.13473 -1.85041,7.21442 a 2.96172,2.96172 0 0 1 -2.43134,1.34895 c -2.08785,0 -2.08785,-1.96857 -2.08785,-3.37646 v -20.6859 h -7.27349 v 1.18269 h 2.65246 v 18.21193 c 0,2.4163 0.0617,6.52757 4.80094,6.52757 a 6.66441,6.66441 0 0 0 6.18969,-3.88875 v 3.49589 H 250.145 v -1.17988 z"
           class="9b9e1fe8-9dd2-43ce-b2f0-c98fa9cd346c"
           inkscape:connector-curvature="0"
           style="fill:#f26631;fill-opacity:1" />
        <path
           id="path46"
           d="m 174.99386,39.56261 c -4.27753,0 -5.01657,-5.30648 -5.24051,-12.34647 -0.0564,-1.967 -0.11267,-4.00549 -0.11267,-6.02751 0,-4.283 0.17034,-9.02361 0.39428,-11.3849 0.27612,-2.98626 0.90249,-5.702 2.48212,-7.268 a 4.3833,4.3833 0 0 1 2.98358,-1.239 4.453,4.453 0 0 1 3.60869,2.0811 c 1.79808,2.36819 2.36678,5.97392 2.82,8.9575 h 1.1772 L 182.99261,0.49865 h -1.06326 L 180.58054,2.9245 A 6.00639,6.00639 0 0 0 175.50067,0 c -6.76106,0 -11.95079,9.35178 -11.95079,20.73118 0,3.83249 0.6251,9.12785 2.36959,12.96863 1.35584,2.92732 4.33942,7.213 8.79546,7.213 a 6.56832,6.56832 0 0 0 5.57978,-3.16068 l 1.463,2.59339 h 1.18536 l 0.3435,-13.29692 h -1.246 c -1.01371,5.01517 -2.42849,12.51401 -7.04671,12.51401 z"
           class="9b9e1fe8-9dd2-43ce-b2f0-c98fa9cd346c"
           inkscape:connector-curvature="0"
           style="fill:#f26631;fill-opacity:1" />
      </g>
    </g>
  </g>
</svg>
