<svg id="SpectrumMobile2-logo" xmlns="http://www.w3.org/2000/svg" xmlns:xlink="http://www.w3.org/1999/xlink" width="229.124" height="70.143" viewBox="0 0 229.124 70.143">
  <defs>
    <clipPath id="clip-path">
      <rect id="Rectangle_427" data-name="Rectangle 427" width="229.124" height="70.143" fill="none"/>
    </clipPath>
  </defs>
  <g id="Group_873" data-name="Group 873" clip-path="url(#clip-path)">
    <path id="Path_706" data-name="Path 706" d="M641.4,431.334q3.568,3.047,10.711,3.044,6.934,0,10.712-2.939a10.851,10.851,0,0,0,3.779-8.821,9.772,9.772,0,0,0-1.155-4.832,8.468,8.468,0,0,0-3.535-3.377,15.316,15.316,0,0,0-2.749-1.062c-1.289-.393-7.694-2.14-8.341-2.313-3.569-.869-5.835-2.059-5.852-4.17.185-4.082,3.991-4.41,6.092-4.41a8.639,8.639,0,0,1,5.146,1.366,4.731,4.731,0,0,1,2.008,4h7.128a11.66,11.66,0,0,0-3.781-8.51q-3.464-2.94-9.872-2.94-6.827,0-10.4,2.835a9.909,9.909,0,0,0-3.57,8.085c.011,4.408,2.1,7,3.99,8.19a24.92,24.92,0,0,0,7.141,2.417l2.839.62c4.924,1.2,7.75,2.719,7.661,5.155a3.942,3.942,0,0,1-1.68,3.36,9.062,9.062,0,0,1-4.933,1.157,9.939,9.939,0,0,1-5.777-1.471,5.764,5.764,0,0,1-2.415-4.412H637.2q.316,5.985,4.2,9.032" transform="translate(-637.2 -396.365)" fill="#00203e"/>
    <path id="Path_707" data-name="Path 707" d="M673.4,416.068c0-2.744-.5-8.548-6.119-8.548-5.333,0-5.91,5.664-5.91,8.548,0,7.3,4.151,8.232,6.121,8.232,5.1,0,5.908-5.412,5.908-8.232m-12.029,20.685a3.559,3.559,0,0,1-3.588,3.588H654.2V414.063c.416-6.99,2.959-12.564,13.578-12.944a12.911,12.911,0,0,1,9.9,4.188c2.111,2.744,3.015,6.154,3.015,10.445q0,6.647-3.166,10.763a9.9,9.9,0,0,1-8.127,4.011,12.941,12.941,0,0,1-8.025-2.453c0,.24,0,8.679,0,8.679" transform="translate(-623.291 -392.474)" fill="#00203e"/>
    <path id="Path_708" data-name="Path 708" d="M682.808,424.175c-1.818-.093-5.283-.449-5.6-6.512l18.2,0c0-.185,0-2.18.005-2.184-.126-4.568-1.22-7.972-3.361-10.525q-3.467-3.781-9.767-3.781-5.985,0-9.345,3.884-3.257,3.781-3.255,10.5,0,7.037,3.361,10.816,3.358,3.884,9.343,3.886a13.378,13.378,0,0,0,8.192-2.415A11.489,11.489,0,0,0,695,421.12l-6.323,0c-.931,2.639-3.31,3.18-5.868,3.053m-.315-16.908c4.512-.06,5.214,3.781,5.355,5.67H677.138s-.091-5.57,5.355-5.67" transform="translate(-610.615 -392.427)" fill="#00203e"/>
    <path id="Path_709" data-name="Path 709" d="M703.14,421.13h6.9s-1.875,9.134-12.3,9.134S684.748,421.9,684.748,416.4s.977-14.889,12.587-15.219c10.729-.16,12.5,9.134,12.5,9.134h-7.348s-.713-3.142-5.088-3.042-5.517,4.206-5.517,8.11.971,8.792,5.828,8.792c4.619.14,5.026-2.357,5.433-3.044" transform="translate(-598.285 -392.426)" fill="#00203e"/>
    <path id="Path_710" data-name="Path 710" d="M706.814,412.676h4.317l0-7.361h-4.306v-4.726a3.369,3.369,0,0,0-3.466-3.57h-3.779v30.873c0,3.22,1.247,5.146,3.951,5.146l3.286,0Z" transform="translate(-586.147 -395.83)" fill="#00203e"/>
    <path id="Path_711" data-name="Path 711" d="M713.469,429.429V415.044a6.307,6.307,0,0,1,1.469-4.621,6.146,6.146,0,0,1,4.515-1.469h2.417V401.5a25.443,25.443,0,0,0-6.563.736,13.8,13.8,0,0,0-4.673,2.309A11.346,11.346,0,0,0,707.326,409a17.3,17.3,0,0,0-1.207,6.879v13.546Z" transform="translate(-580.794 -392.168)" fill="#00203e"/>
    <path id="Path_712" data-name="Path 712" d="M715.924,401.52h7.35v17.852a4.527,4.527,0,0,0,4.832,4.832,4.59,4.59,0,0,0,4.932-4.626V404.984s.249-3.464,3.437-3.464h3.813s-.005,16.422,0,16.581c-.051.9.964,11.884-12.18,11.84-13.022,0-12.1-11.109-12.182-11.763Z" transform="translate(-572.769 -392.146)" fill="#00203e"/>
    <path id="Path_713" data-name="Path 713" d="M754.938,429.827h-7.281V411.884c0-2.068-.853-4.853-4.963-4.853a4.555,4.555,0,0,0-4.852,4.853v17.943h-7.39V413.363c0-4.783,1.42-7.7,3.748-9.6,2.308-1.878,5.259-2.5,8.283-2.639a21.394,21.394,0,0,1,4.75.529,10,10,0,0,1,4.222,2.109,9.349,9.349,0,0,1,3.746-1.951,17.658,17.658,0,0,1,4.486-.687c9.01-.047,12.627,4.079,12.927,5.4l0,23.305h-4.172a3.533,3.533,0,0,1-3.586-3.588V411.884c.018-2.035-.695-4.853-4.963-4.853-4.221,0-4.959,3.166-4.959,4.853Z" transform="translate(-560.878 -392.474)" fill="#00203e"/>
    <path id="Path_714" data-name="Path 714" d="M754.765,404.083v23.281L770.1,415.727Z" transform="translate(-540.98 -390.048)" fill="#0099d8"/>
    <path id="Path_715" data-name="Path 715" d="M726.7,443.652a1.312,1.312,0,0,1-1.313-1.313V430.769a5.777,5.777,0,0,0-1.284-3.781,4.865,4.865,0,0,0-4-1.569,4.922,4.922,0,0,0-3.995,1.535,5.636,5.636,0,0,0-1.284,3.746v12.953h-2.355V430.769a5.688,5.688,0,0,0-1.318-3.781,5.918,5.918,0,0,0-7.99-.035,5.739,5.739,0,0,0-1.249,3.746v12.953h-2.426V431.2q0-3.851,2.033-5.743a8.014,8.014,0,0,1,5.672-1.891q4.566,0,6.492,3,1.713-2.995,6.421-3a8.042,8.042,0,0,1,5.637,1.891q2.068,1.89,2.068,5.743v12.455Z" transform="translate(-586.216 -374.104)" fill="#00203e"/>
    <path id="Path_716" data-name="Path 716" d="M725.352,444.243a10.177,10.177,0,0,1-3.542-.682,7.938,7.938,0,0,1-2.879-1.931,9.28,9.28,0,0,1-1.949-3.219,12.915,12.915,0,0,1-.718-4.506,13.871,13.871,0,0,1,.567-4.033,9.489,9.489,0,0,1,1.7-3.275,8.1,8.1,0,0,1,2.84-2.217,9.136,9.136,0,0,1,3.977-.813,9.24,9.24,0,0,1,4.013.813,8.222,8.222,0,0,1,2.84,2.2,9.09,9.09,0,0,1,1.686,3.275,14.523,14.523,0,0,1,.549,4.053,13.158,13.158,0,0,1-.644,4.241,9.55,9.55,0,0,1-1.839,3.257,8.073,8.073,0,0,1-2.877,2.1,9.19,9.19,0,0,1-3.73.738m6.665-10.338a13.475,13.475,0,0,0-.378-3.257,7.753,7.753,0,0,0-1.175-2.631,5.666,5.666,0,0,0-2.046-1.762,6.637,6.637,0,0,0-3.066-.644,6.212,6.212,0,0,0-3.05.7,5.987,5.987,0,0,0-2.064,1.855,8.152,8.152,0,0,0-1.173,2.651,12.5,12.5,0,0,0-.38,3.086,12.2,12.2,0,0,0,.437,3.351,7.839,7.839,0,0,0,1.267,2.631,5.724,5.724,0,0,0,2.084,1.706,6.519,6.519,0,0,0,2.879.6,6.194,6.194,0,0,0,3.048-.7,5.9,5.9,0,0,0,2.064-1.873,8.463,8.463,0,0,0,1.175-2.651,12.38,12.38,0,0,0,.378-3.068" transform="translate(-572.492 -374.102)" fill="#00203e"/>
    <path id="Path_717" data-name="Path 717" d="M744.955,432.6a9.112,9.112,0,0,0-1.686-3.277,8.193,8.193,0,0,0-2.84-2.195,9.207,9.207,0,0,0-4.013-.815,9.115,9.115,0,0,0-3.977.815,8.1,8.1,0,0,0-2.84,2.215V421.53a1.312,1.312,0,0,0-1.311-1.313h-.96v16.8h.013a12.611,12.611,0,0,0,.706,4.135A9.285,9.285,0,0,0,730,444.371a7.906,7.906,0,0,0,2.879,1.931,10.209,10.209,0,0,0,3.541.682,9.183,9.183,0,0,0,3.729-.738,8.117,8.117,0,0,0,2.879-2.1,9.579,9.579,0,0,0,1.835-3.257,13.084,13.084,0,0,0,.646-4.242,14.505,14.505,0,0,0-.549-4.052m-2.253,7.119a8.416,8.416,0,0,1-1.175,2.651,5.893,5.893,0,0,1-2.064,1.873,6.214,6.214,0,0,1-3.048.7,6.5,6.5,0,0,1-2.879-.607,5.661,5.661,0,0,1-2.082-1.7A7.842,7.842,0,0,1,730.185,440a12.216,12.216,0,0,1-.435-3.351,12.509,12.509,0,0,1,.378-3.086,8.166,8.166,0,0,1,1.173-2.651,5.986,5.986,0,0,1,2.064-1.855,6.216,6.216,0,0,1,3.05-.7,6.613,6.613,0,0,1,3.066.646,5.628,5.628,0,0,1,2.046,1.76,7.7,7.7,0,0,1,1.175,2.631,13.486,13.486,0,0,1,.378,3.257,12.38,12.38,0,0,1-.378,3.068" transform="translate(-563.436 -376.844)" fill="#00203e"/>
    <path id="Path_718" data-name="Path 718" d="M738.593,420.258h2.493v2.959h-2.493Zm.113,6.6h2.266v19.559h-2.266Z" transform="translate(-554.216 -376.81)" fill="#00203e"/>
    <rect id="Rectangle_426" data-name="Rectangle 426" width="2.266" height="26.162" transform="translate(189.538 43.448)" fill="#00203e"/>
    <path id="Path_719" data-name="Path 719" d="M746.359,434.435a10.632,10.632,0,0,0,.417,3.011,7.233,7.233,0,0,0,1.231,2.462,5.946,5.946,0,0,0,2.064,1.666,6.347,6.347,0,0,0,2.877.624,6.269,6.269,0,0,0,3.826-1.173,5.656,5.656,0,0,0,2.12-3.333h2.537a12.232,12.232,0,0,1-1.1,2.595,7.967,7.967,0,0,1-1.7,2.082,7.324,7.324,0,0,1-2.424,1.382,9.79,9.79,0,0,1-3.257.493,9.524,9.524,0,0,1-4.052-.795,7.634,7.634,0,0,1-2.8-2.178,9.2,9.2,0,0,1-1.629-3.255,14.8,14.8,0,0,1-.529-4.033,12.906,12.906,0,0,1,.624-4.053,10.338,10.338,0,0,1,1.78-3.313,8.308,8.308,0,0,1,2.822-2.235,8.528,8.528,0,0,1,3.786-.815,7.827,7.827,0,0,1,6.363,2.784q2.31,2.785,2.271,8.085Zm12.8-1.893a9,9,0,0,0-.4-2.708,6.37,6.37,0,0,0-1.175-2.2,5.619,5.619,0,0,0-1.949-1.477,6.294,6.294,0,0,0-2.689-.549,5.958,5.958,0,0,0-2.67.569,6.13,6.13,0,0,0-1.969,1.513,7.6,7.6,0,0,0-1.306,2.2,10.1,10.1,0,0,0-.644,2.651Z" transform="translate(-549.844 -374.103)" fill="#00203e"/>
  </g>
</svg>
