<svg width="124" height="56" viewBox="0 0 124 56" fill="none" xmlns="http://www.w3.org/2000/svg">
<path d="M59.5306 3.66307C59.5306 2.93858 59.3167 2.23036 58.9159 1.62798C58.5151 1.02559 57.9455 0.556084 57.279 0.278836C56.6126 0.00158715 55.8792 -0.0709537 55.1717 0.0703864C54.4642 0.211727 53.8143 0.5606 53.3043 1.07289C52.7942 1.58518 52.4468 2.23787 52.3061 2.94844C52.1653 3.659 52.2376 4.39552 52.5136 5.06486C52.7897 5.7342 53.2572 6.30629 53.857 6.70879C54.4567 7.11129 55.1619 7.32613 55.8833 7.32613C56.8468 7.3139 57.7675 6.92405 58.4488 6.23973C59.1302 5.5554 59.5184 4.63077 59.5306 3.66307Z" fill="#1800FF"/>
<path d="M33.2166 3.66307C33.2166 2.93858 33.0027 2.23036 32.6019 1.62798C32.2011 1.02559 31.6315 0.556084 30.9651 0.278836C30.2986 0.00158715 29.5652 -0.0709537 28.8577 0.0703864C28.1502 0.211727 27.5004 0.5606 26.9903 1.07289C26.4802 1.58518 26.1328 2.23787 25.9921 2.94844C25.8514 3.659 25.9236 4.39552 26.1996 5.06486C26.4757 5.7342 26.9432 6.30629 27.543 6.70879C28.1428 7.11129 28.8479 7.32613 29.5693 7.32613C31.5966 7.29332 33.2166 5.66632 33.2166 3.66307Z" fill="#1800FF"/>
<path d="M116.199 26.1489C115.365 27.8733 113.953 28.8268 112.061 28.8268C108.855 28.8268 107.53 25.7388 107.53 23.0118H122.413V22.2726C122.413 15.7523 118.684 10.5125 111.636 10.5125C104.669 10.5125 101.038 15.6693 101.038 22.2234C101.038 28.7776 105.29 33.5407 111.946 33.5407C116.46 33.5407 121.133 31.0105 122.495 26.1489H116.199ZM111.963 14.8481C114.792 14.8481 115.871 16.7539 116.215 19.2011H107.678C108.021 16.7047 109.673 14.8481 111.963 14.8481Z" fill="#1800FF"/>
<path d="M97.2764 1.6489e-06H91.1435V32.8507H97.2764V1.6489e-06Z" fill="#1800FF"/>
<path d="M76.8493 10.5289C74.576 10.5289 72.4007 11.4977 70.6348 13.3369V0.016405H64.5018V32.8507H70.6511V30.7316H70.7327C71.9577 32.4888 74.8047 33.5571 76.9963 33.5571C83.6039 33.5571 87.3492 27.8405 87.3492 21.9281C87.3492 16.2444 83.1946 10.5289 76.8493 10.5289ZM75.7428 28.0907C72.2721 28.0907 70.1284 25.0684 70.1284 22.0132C70.1284 18.9581 72.2721 15.985 75.7428 15.985C79.4554 15.985 81.1397 18.9745 81.1397 22.0132C81.1346 25.0653 79.4503 28.0907 75.7428 28.0907Z" fill="#1800FF"/>
<path d="M49.5544 13.0089C47.9211 11.4977 45.3834 10.5289 42.8651 10.5289C38.8258 10.5289 36.0258 13.4856 36.0258 17.5259C36.0258 21.0116 38.1695 22.2726 40.3274 23.2086C42.4854 24.1446 44.628 24.5722 44.628 26.4616C44.628 27.8733 43.5327 28.794 42.1781 28.794C40.3795 28.794 38.7278 27.6929 37.6152 26.2802L34.7202 30.058C36.6015 32.3412 39.4965 33.5437 42.3915 33.5437C46.9044 33.5437 50.762 30.6855 50.762 25.8895C50.762 22.1445 48.5703 20.6497 46.3297 19.6809C44.138 18.7111 41.8974 18.2682 41.8974 16.6914C41.8974 15.6395 42.7804 14.8347 43.794 14.8347C45.1354 14.8347 46.1 15.5739 46.935 16.5602L49.5544 13.0089Z" fill="#1800FF"/>
<path d="M23.518 11.2352L13.6562 33.2936H9.86188L0 11.2352H6.75458L11.7585 23.3563L16.7798 11.2352H23.518Z" fill="#1800FF"/>
<path d="M66.7092 52.2711C66.3157 52.0597 65.9909 51.7395 65.7731 51.3484H65.7323V52.3736H64.5073V42.3799H65.7506V44.9317C65.7506 45.2098 65.7462 45.4695 65.7374 45.7108C65.7285 45.9521 65.7197 46.1489 65.7108 46.3013H65.7506C65.9835 45.9158 66.3043 45.5914 66.6867 45.3551C67.1014 45.102 67.5797 44.9736 68.0648 44.985C68.4934 44.9793 68.918 45.0689 69.3081 45.2474C69.6829 45.4225 70.0142 45.6792 70.2779 45.9989C70.5635 46.3521 70.7772 46.7582 70.9067 47.1943C71.0602 47.7107 71.1346 48.2475 71.1272 48.7864C71.1339 49.3201 71.0617 49.8519 70.9128 50.3642C70.789 50.7993 70.5808 51.2055 70.3003 51.5596C70.0365 51.884 69.7024 52.1435 69.3234 52.3183C68.9159 52.5027 68.4729 52.5944 68.026 52.5869C67.5677 52.594 67.1149 52.4854 66.7092 52.2711ZM68.7508 51.3484C68.9975 51.2073 69.2073 51.0095 69.3632 50.7712C69.5371 50.505 69.6616 50.2095 69.7307 49.8988C69.814 49.5385 69.8545 49.1696 69.8512 48.7998C69.8539 48.4293 69.8135 48.0597 69.7307 47.6987C69.6624 47.3863 69.5405 47.0883 69.3704 46.818C69.2153 46.579 69.0053 46.381 68.7579 46.2408C68.4929 46.0987 68.1957 46.028 67.8953 46.0358C67.5528 46.0266 67.2132 46.1004 66.9052 46.2511C66.6327 46.3911 66.3967 46.5934 66.2161 46.8416C66.0265 47.1066 65.888 47.405 65.8078 47.7212C65.7187 48.0736 65.6754 48.4362 65.6792 48.7998C65.6762 49.1694 65.7233 49.5377 65.819 49.8947C65.9024 50.2089 66.0433 50.5047 66.2345 50.7671C66.4149 51.0117 66.6508 51.2096 66.9225 51.3443C67.2229 51.4876 67.5527 51.5579 67.8851 51.5494C68.1855 51.5578 68.4829 51.4871 68.7477 51.3443L68.7508 51.3484Z" fill="black"/>
<path d="M72.2521 54.8485C72.0984 54.8337 71.9476 54.7975 71.8039 54.7408V53.6613H71.857C71.9543 53.7154 72.061 53.7502 72.1714 53.7638C72.3153 53.786 72.4607 53.7969 72.6063 53.7966C72.8297 53.8043 73.0498 53.7407 73.2351 53.6152C73.4035 53.4952 73.5515 53.2645 73.6761 52.9242C73.6864 52.8762 73.6997 52.829 73.7159 52.7827C73.7424 52.6976 73.7741 52.6012 73.8098 52.4936C73.8455 52.3859 73.8762 52.2885 73.9037 52.186C73.925 52.1305 73.9341 52.0711 73.9303 52.0117L71.1884 45.1603H72.5389L74.0242 49.1586C74.0922 49.3636 74.1633 49.5782 74.2375 49.8024C74.309 50.0269 74.3753 50.2371 74.4417 50.4339C74.5039 50.6667 74.5662 50.8912 74.6285 51.1054H74.655C74.7173 50.8912 74.7847 50.6667 74.8592 50.4339C74.9211 50.2371 74.9892 50.0266 75.0633 49.8024C75.1375 49.5782 75.209 49.3636 75.2777 49.1586L76.7068 45.1603H78.0032L74.9541 53.0308C74.8297 53.3498 74.6802 53.6583 74.507 53.9535C74.3825 54.1677 74.2243 54.3602 74.0385 54.5235C73.8838 54.6571 73.7009 54.7535 73.5036 54.8054C73.2958 54.8565 73.0825 54.8813 72.8686 54.8792C72.6627 54.8828 72.4567 54.8725 72.2521 54.8485Z" fill="black"/>
<path d="M81.1197 42.3799L83.3001 49.0438C83.3624 49.2221 83.4267 49.4354 83.4941 49.6814C83.5614 49.9275 83.6247 50.1633 83.688 50.3868C83.7584 50.6462 83.8258 50.9107 83.8922 51.1793H83.9187C83.9806 50.9018 84.0487 50.6332 84.1229 50.3735C84.1848 50.1486 84.2471 49.9155 84.3097 49.6743C84.3719 49.4333 84.4342 49.2221 84.4975 49.0438L86.6503 42.3799H88.0672L84.5832 52.3726H83.0857L79.6487 42.3799H81.1197Z" fill="black"/>
<path d="M89.578 52.2783C89.1566 52.0895 88.7803 51.8123 88.4745 51.4653C88.1673 51.1128 87.934 50.7017 87.7885 50.2566C87.6294 49.7785 87.55 49.2772 87.5537 48.7731C87.5506 48.2719 87.6345 47.7741 87.8018 47.3019C87.9559 46.8588 88.1918 46.4487 88.497 46.0932C88.7963 45.7483 89.1656 45.4714 89.58 45.2812C90.0228 45.0795 90.5045 44.9783 90.9908 44.985C91.4796 44.975 91.9643 45.0763 92.4086 45.2812C92.8127 45.4735 93.1691 45.7536 93.4519 46.1014C93.7574 46.4813 93.9825 46.9198 94.1134 47.3901C94.2667 47.9364 94.3413 48.5019 94.3349 49.0694H88.8226C88.8472 49.4037 88.9159 49.7333 89.0267 50.0495C89.1246 50.3384 89.274 50.6069 89.4677 50.842C89.6529 51.0639 89.8847 51.2417 90.1466 51.3628C90.4354 51.492 90.7491 51.5561 91.0653 51.5504C91.5644 51.5504 91.9768 51.4417 92.3025 51.2213C92.6236 51.0082 92.8583 50.6867 92.9639 50.315H94.1807C94.0319 50.969 93.655 51.548 93.1181 51.9471C92.5696 52.3634 91.8809 52.5715 91.052 52.5715C90.5454 52.5807 90.0428 52.4807 89.578 52.2783ZM90.1364 46.1199C89.8926 46.2279 89.674 46.3857 89.4943 46.5833C89.3112 46.7887 89.1663 47.0256 89.0666 47.2825C88.9556 47.5666 88.8835 47.8646 88.8522 48.1682H93.0109C92.9755 47.4704 92.7863 46.9267 92.4433 46.5371C92.1004 46.1475 91.6165 45.9528 90.9918 45.9528C90.6981 45.9472 90.4065 46.0041 90.1364 46.1199Z" fill="black"/>
<path d="M96.5918 46.4623C96.7987 46.0606 97.0966 45.7133 97.4616 45.4484C97.8292 45.1898 98.2694 45.0558 98.7182 45.066C98.8013 45.0643 98.8844 45.0712 98.9662 45.0865C99.0358 45.1008 99.1041 45.1211 99.1704 45.1469V46.328H99.1295C99.0511 46.3039 98.9709 46.286 98.8896 46.2747C98.8008 46.2647 98.7115 46.2603 98.6222 46.2613C98.3517 46.2601 98.0836 46.3124 97.8331 46.4151C97.5886 46.5157 97.3665 46.6641 97.1798 46.8519C96.9869 47.0482 96.8346 47.2809 96.7317 47.5367C96.6161 47.827 96.5592 48.1375 96.5643 48.4502V52.3726H95.322V45.1603H96.552V46.4623H96.5918Z" fill="black"/>
<path d="M101.326 42.3799V43.8306H100.029V42.3799H101.326ZM101.3 45.1603V52.3726H100.055V45.1603H101.3Z" fill="black"/>
<path d="M105.619 47.2015C105.69 47.0989 105.775 46.9964 105.873 46.8857C105.971 46.775 106.065 46.6684 106.154 46.5699C106.256 46.4541 106.358 46.3372 106.475 46.2214V46.1804L105.98 46.207C105.837 46.2162 105.69 46.2214 105.538 46.2214H102.65V45.1603H108.039V45.9384L104.772 50.2238C104.692 50.3263 104.6 50.4288 104.498 50.5518C104.396 50.6749 104.294 50.7876 104.192 50.8953C104.09 51.0204 103.973 51.1454 103.858 51.2705V51.3115C104.036 51.3115 104.21 51.3064 104.379 51.2982C104.531 51.289 104.686 51.2818 104.847 51.2777C105.008 51.2736 105.153 51.2705 105.289 51.2705H108.204V52.3726H102.413V51.4048L105.619 47.2015Z" fill="black"/>
<path d="M110.587 52.2783C110.165 52.0898 109.789 51.8125 109.483 51.4653C109.175 51.1111 108.936 50.7008 108.781 50.2566C108.452 49.2995 108.452 48.259 108.781 47.3019C108.937 46.8578 109.175 46.4476 109.483 46.0932C109.789 45.7466 110.166 45.4697 110.587 45.2812C111.048 45.0775 111.548 44.9765 112.052 44.985C112.553 44.9761 113.05 45.0772 113.508 45.2812C113.927 45.4709 114.301 45.7476 114.606 46.0932C114.914 46.4467 115.15 46.8573 115.301 47.3019C115.622 48.2604 115.622 49.2981 115.301 50.2566C115.15 50.7013 114.914 51.112 114.606 51.4653C114.302 51.8115 113.928 52.0886 113.508 52.2783C113.05 52.4815 112.553 52.5822 112.052 52.5735C111.548 52.5819 111.048 52.4812 110.587 52.2783ZM113.007 51.3382C113.284 51.1985 113.524 50.9959 113.71 50.7466C113.903 50.4823 114.046 50.184 114.131 49.867C114.318 49.1518 114.318 48.4005 114.131 47.6854C114.046 47.364 113.903 47.061 113.71 46.7914C113.525 46.5394 113.285 46.3346 113.007 46.1937C112.703 46.0523 112.372 45.9791 112.037 45.9791C111.703 45.9791 111.372 46.0523 111.068 46.1937C110.79 46.3344 110.549 46.5392 110.365 46.7914C110.171 47.0608 110.028 47.3638 109.944 47.6854C109.757 48.4005 109.757 49.1518 109.944 49.867C110.028 50.1842 110.171 50.4826 110.365 50.7466C110.55 50.9962 110.791 51.1988 111.068 51.3382C111.372 51.4795 111.703 51.5527 112.037 51.5527C112.372 51.5527 112.703 51.4795 113.007 51.3382Z" fill="black"/>
<path d="M117.8 46.1804C118.045 45.8251 118.365 45.5274 118.736 45.3079C119.145 45.0817 119.607 44.9701 120.073 44.985C120.831 44.985 121.423 45.1866 121.851 45.5898C122.279 45.9931 122.493 46.574 122.493 47.3327V52.3695H121.268V47.4834C121.268 47.018 121.128 46.6598 120.847 46.409C120.566 46.1581 120.179 46.0324 119.687 46.0317C119.424 46.0291 119.163 46.0772 118.919 46.1732C118.689 46.2604 118.48 46.3952 118.306 46.5689C118.133 46.7441 117.999 46.9536 117.911 47.184C117.815 47.4371 117.768 47.7059 117.771 47.9765V52.3685H116.527V45.1603H117.752V46.1804H117.8Z" fill="black"/>
</svg>
